<mxfile host="app.diagrams.net" modified="2023-10-15T14:51:29.796Z" agent="Mozilla/5.0 (X11; Ubuntu; Linux x86_64; rv:109.0) Gecko/20100101 Firefox/117.0" etag="Wb8JXSVda_UJS6zec7Uu" version="22.0.4" type="github">
  <diagram name="Página-1" id="oWugHQrbSOqh9jWyQRqq">
    <mxGraphModel dx="1364" dy="795" grid="1" gridSize="10" guides="1" tooltips="1" connect="1" arrows="1" fold="1" page="1" pageScale="1" pageWidth="827" pageHeight="1169" math="0" shadow="0">
      <root>
        <mxCell id="0" />
        <mxCell id="1" parent="0" />
        <mxCell id="y_BZ_Qdq7W9PFMEukyWW-1" value="&lt;font style=&quot;font-size: 14px;&quot;&gt;Programador&lt;/font&gt;" style="shape=umlActor;verticalLabelPosition=bottom;verticalAlign=top;html=1;outlineConnect=0;" vertex="1" parent="1">
          <mxGeometry x="180" y="350" width="40" height="85" as="geometry" />
        </mxCell>
        <mxCell id="y_BZ_Qdq7W9PFMEukyWW-2" value="" style="whiteSpace=wrap;html=1;aspect=fixed;rounded=0;glass=0;shadow=0;" vertex="1" parent="1">
          <mxGeometry x="280" y="140" width="391" height="391" as="geometry" />
        </mxCell>
        <mxCell id="y_BZ_Qdq7W9PFMEukyWW-5" style="edgeStyle=orthogonalEdgeStyle;rounded=0;orthogonalLoop=1;jettySize=auto;html=1;exitX=0.5;exitY=1;exitDx=0;exitDy=0;" edge="1" parent="1">
          <mxGeometry relative="1" as="geometry">
            <mxPoint x="420" y="194.5" as="sourcePoint" />
            <mxPoint x="420" y="194.5" as="targetPoint" />
          </mxGeometry>
        </mxCell>
        <mxCell id="y_BZ_Qdq7W9PFMEukyWW-32" style="edgeStyle=orthogonalEdgeStyle;rounded=0;orthogonalLoop=1;jettySize=auto;html=1;" edge="1" parent="1" source="y_BZ_Qdq7W9PFMEukyWW-7" target="y_BZ_Qdq7W9PFMEukyWW-29">
          <mxGeometry relative="1" as="geometry" />
        </mxCell>
        <mxCell id="y_BZ_Qdq7W9PFMEukyWW-33" style="edgeStyle=orthogonalEdgeStyle;rounded=0;orthogonalLoop=1;jettySize=auto;html=1;" edge="1" parent="1" source="y_BZ_Qdq7W9PFMEukyWW-7" target="y_BZ_Qdq7W9PFMEukyWW-30">
          <mxGeometry relative="1" as="geometry" />
        </mxCell>
        <mxCell id="y_BZ_Qdq7W9PFMEukyWW-7" value="&lt;div&gt;&lt;font style=&quot;font-size: 14px;&quot;&gt;Jogadores&lt;/font&gt;&lt;/div&gt;" style="shape=umlActor;verticalLabelPosition=bottom;verticalAlign=top;html=1;outlineConnect=0;" vertex="1" parent="1">
          <mxGeometry x="190" y="230" width="40" height="80" as="geometry" />
        </mxCell>
        <mxCell id="y_BZ_Qdq7W9PFMEukyWW-25" value="&lt;font style=&quot;font-size: 14px;&quot;&gt;Definir o Tabuleiro e a Distribuição das Cartas&lt;/font&gt;" style="text;html=1;strokeColor=default;fillColor=none;align=center;verticalAlign=middle;whiteSpace=wrap;rounded=1;" vertex="1" parent="1">
          <mxGeometry x="414" y="390" width="196" height="70" as="geometry" />
        </mxCell>
        <mxCell id="y_BZ_Qdq7W9PFMEukyWW-29" value="&lt;font style=&quot;font-size: 14px;&quot;&gt;Virar as Cartas&lt;/font&gt;" style="text;html=1;strokeColor=default;fillColor=none;align=center;verticalAlign=middle;whiteSpace=wrap;rounded=1;" vertex="1" parent="1">
          <mxGeometry x="490" y="210" width="100" height="40" as="geometry" />
        </mxCell>
        <mxCell id="y_BZ_Qdq7W9PFMEukyWW-30" value="&lt;font style=&quot;font-size: 14px;&quot;&gt;Coletar as Cartas&lt;/font&gt;" style="text;html=1;strokeColor=default;fillColor=none;align=center;verticalAlign=middle;whiteSpace=wrap;rounded=1;" vertex="1" parent="1">
          <mxGeometry x="490" y="280" width="90" height="50" as="geometry" />
        </mxCell>
        <mxCell id="y_BZ_Qdq7W9PFMEukyWW-36" value="&lt;font size=&quot;3&quot;&gt;Tabuleiro&lt;/font&gt;" style="rounded=0;whiteSpace=wrap;html=1;" vertex="1" parent="1">
          <mxGeometry x="280" y="140" width="120" height="60" as="geometry" />
        </mxCell>
        <mxCell id="y_BZ_Qdq7W9PFMEukyWW-39" style="edgeStyle=orthogonalEdgeStyle;rounded=0;orthogonalLoop=1;jettySize=auto;html=1;entryX=-0.02;entryY=0.614;entryDx=0;entryDy=0;entryPerimeter=0;" edge="1" parent="1" source="y_BZ_Qdq7W9PFMEukyWW-1" target="y_BZ_Qdq7W9PFMEukyWW-25">
          <mxGeometry relative="1" as="geometry" />
        </mxCell>
      </root>
    </mxGraphModel>
  </diagram>
</mxfile>
